<mxfile host="drawio-plugin" modified="2021-06-03T07:35:18.972Z" agent="5.0 (Macintosh; Intel Mac OS X 10_16_0) AppleWebKit/537.36 (KHTML, like Gecko) Chrome/84.0.4147.105 Safari/537.36" etag="4WbxD7kkD01xlE5b_iRj" version="14.6.6" type="embed"><diagram id="WC6H5ETgickhH7yKUipz" name="Page-1"><mxGraphModel dx="977" dy="765" grid="0" gridSize="10" guides="1" tooltips="1" connect="1" arrows="1" fold="1" page="0" pageScale="1" pageWidth="850" pageHeight="1100" math="0" shadow="0"><root><mxCell id="0"/><mxCell id="1" parent="0"/><mxCell id="2" value="User" style="whiteSpace=wrap;html=1;align=center;" parent="1" vertex="1"><mxGeometry x="200" y="320" width="100" height="40" as="geometry"/></mxCell><mxCell id="3" value="Password" style="ellipse;whiteSpace=wrap;html=1;align=center;" parent="1" vertex="1"><mxGeometry x="180" y="440" width="100" height="40" as="geometry"/></mxCell><mxCell id="4" value="UserID" style="ellipse;whiteSpace=wrap;html=1;align=center;fontStyle=4;" parent="1" vertex="1"><mxGeometry x="60" y="280" width="100" height="40" as="geometry"/></mxCell><mxCell id="5" value="UserName" style="ellipse;whiteSpace=wrap;html=1;align=center;" parent="1" vertex="1"><mxGeometry x="60" y="380" width="100" height="40" as="geometry"/></mxCell><mxCell id="6" value="Identity" style="ellipse;whiteSpace=wrap;html=1;align=center;" parent="1" vertex="1"><mxGeometry x="190" y="200" width="100" height="40" as="geometry"/></mxCell><mxCell id="7" value="" style="endArrow=none;html=1;rounded=0;exitX=0.5;exitY=1;exitDx=0;exitDy=0;entryX=0.5;entryY=0;entryDx=0;entryDy=0;" parent="1" source="6" target="2" edge="1"><mxGeometry relative="1" as="geometry"><mxPoint x="360" y="290" as="sourcePoint"/><mxPoint x="520" y="290" as="targetPoint"/></mxGeometry></mxCell><mxCell id="9" value="" style="endArrow=none;html=1;rounded=0;exitX=1;exitY=0.5;exitDx=0;exitDy=0;entryX=0;entryY=0;entryDx=0;entryDy=0;" parent="1" source="4" target="2" edge="1"><mxGeometry relative="1" as="geometry"><mxPoint x="440" y="290" as="sourcePoint"/><mxPoint x="600" y="290" as="targetPoint"/></mxGeometry></mxCell><mxCell id="10" value="" style="endArrow=none;html=1;rounded=0;exitX=0.5;exitY=0;exitDx=0;exitDy=0;entryX=0.5;entryY=1;entryDx=0;entryDy=0;" parent="1" source="3" target="2" edge="1"><mxGeometry relative="1" as="geometry"><mxPoint x="170" y="310" as="sourcePoint"/><mxPoint x="210" y="350" as="targetPoint"/></mxGeometry></mxCell><mxCell id="11" value="" style="endArrow=none;html=1;rounded=0;exitX=1;exitY=0.5;exitDx=0;exitDy=0;entryX=0;entryY=1;entryDx=0;entryDy=0;" parent="1" source="5" target="2" edge="1"><mxGeometry relative="1" as="geometry"><mxPoint x="180" y="320" as="sourcePoint"/><mxPoint x="220" y="360" as="targetPoint"/><Array as="points"/></mxGeometry></mxCell><mxCell id="13" value="" style="endArrow=none;html=1;rounded=0;entryX=1;entryY=0.5;entryDx=0;entryDy=0;startArrow=none;" parent="1" source="12" target="2" edge="1"><mxGeometry relative="1" as="geometry"><mxPoint x="390" y="340" as="sourcePoint"/><mxPoint x="260" y="330" as="targetPoint"/></mxGeometry></mxCell><mxCell id="12" value="login" style="shape=rhombus;perimeter=rhombusPerimeter;whiteSpace=wrap;html=1;align=center;" parent="1" vertex="1"><mxGeometry x="360" y="320" width="80" height="40" as="geometry"/></mxCell><mxCell id="17" value="Event Card System" style="whiteSpace=wrap;html=1;align=center;" parent="1" vertex="1"><mxGeometry x="490" y="320" width="100" height="40" as="geometry"/></mxCell><mxCell id="18" value="" style="endArrow=none;html=1;rounded=0;entryX=0;entryY=0.5;entryDx=0;entryDy=0;startArrow=none;exitX=1;exitY=0.5;exitDx=0;exitDy=0;" parent="1" source="12" target="17" edge="1"><mxGeometry relative="1" as="geometry"><mxPoint x="370" y="350" as="sourcePoint"/><mxPoint x="310" y="350" as="targetPoint"/></mxGeometry></mxCell><mxCell id="19" value="" style="endArrow=none;html=1;rounded=0;entryX=1;entryY=0.5;entryDx=0;entryDy=0;startArrow=none;" parent="1" source="20" target="17" edge="1"><mxGeometry relative="1" as="geometry"><mxPoint x="700" y="340" as="sourcePoint"/><mxPoint x="610" y="340" as="targetPoint"/></mxGeometry></mxCell><mxCell id="20" value="show up" style="shape=rhombus;perimeter=rhombusPerimeter;whiteSpace=wrap;html=1;align=center;" parent="1" vertex="1"><mxGeometry x="660" y="320" width="80" height="40" as="geometry"/></mxCell><mxCell id="21" value="" style="endArrow=none;html=1;rounded=0;entryX=0;entryY=0.5;entryDx=0;entryDy=0;startArrow=none;exitX=1;exitY=0.5;exitDx=0;exitDy=0;" parent="1" source="20" target="22" edge="1"><mxGeometry relative="1" as="geometry"><mxPoint x="680" y="350" as="sourcePoint"/><mxPoint x="800" y="340" as="targetPoint"/></mxGeometry></mxCell><mxCell id="22" value="Event card GUI" style="whiteSpace=wrap;html=1;align=center;" parent="1" vertex="1"><mxGeometry x="820" y="320" width="100" height="40" as="geometry"/></mxCell></root></mxGraphModel></diagram></mxfile>